<?xml version="1.0" standalone="no"?>
<!DOCTYPE svg PUBLIC "-//W3C//DTD SVG 20010904//EN"
 "http://www.w3.org/TR/2001/REC-SVG-20010904/DTD/svg10.dtd">
<svg version="1.0" xmlns="http://www.w3.org/2000/svg"
 width="104.000000pt" height="104.000000pt" viewBox="0 0 104.000000 104.000000"
 preserveAspectRatio="xMidYMid meet">
<metadata>
Created by potrace 1.11, written by Peter Selinger 2001-2013
</metadata>
<g transform="translate(0.000000,104.000000) scale(0.100000,-0.100000)"
fill="#000000" stroke="none">
<path d="M655 862 c-6 -5 -31 -15 -57 -22 -69 -18 -75 -29 -53 -98 9 -31 20
-62 22 -68 2 -7 -12 -14 -34 -18 -21 -4 -59 -18 -85 -31 l-47 -24 -21 64 c-12
35 -27 68 -34 74 -16 14 -125 -20 -142 -44 -10 -13 1 -53 52 -206 35 -104 64
-196 64 -204 0 -27 66 -82 111 -92 138 -33 346 58 393 171 17 42 22 23 -74
301 -62 180 -77 213 -95 197z"/>
</g>
</svg>
